<svg xmlns="http://www.w3.org/2000/svg" width="317" height="319" viewBox="0 0 317 319">
  <g id="Group_1369" data-name="Group 1369" transform="translate(-1462 -632)">
    <path id="Rectangle_816" data-name="Rectangle 816" d="M14,0H317a0,0,0,0,1,0,0V305a14,14,0,0,1-14,14H14A14,14,0,0,1,0,305V14A14,14,0,0,1,14,0Z" transform="translate(1462 632)" opacity="0.282"/>
    <text id="Digital_Money_Services" data-name="Digital Money
Services" transform="translate(1619 784)" fill="#fff" font-size="34" font-family="Roboto-Light, Roboto" font-weight="300" letter-spacing="-0.007em"><tspan x="-99.692" y="0">Digital Money</tspan><tspan x="-62.021" y="40">Services</tspan></text>
    <g id="Group_1333" data-name="Group 1333" transform="translate(1736.737 638.389)">
      <g id="Group_1305" data-name="Group 1305" transform="translate(16.156 0) rotate(45)">
        <circle id="Ellipse_23" data-name="Ellipse 23" cx="11.424" cy="11.424" r="11.424" transform="translate(0 0)" fill="none" stroke="#fff" stroke-linecap="round" stroke-miterlimit="10" stroke-width="1.5"/>
        <g id="Group_970" data-name="Group 970" transform="translate(7.632 7.632)">
          <g id="Group_968" data-name="Group 968" transform="translate(0 0)">
            <line id="Line_6" data-name="Line 6" x2="7.584" y2="7.584" stroke-width="1.5" stroke="#fff" stroke-linecap="round" stroke-linejoin="round" fill="none"/>
          </g>
          <g id="Group_969" data-name="Group 969" transform="translate(0 0)">
            <line id="Line_7" data-name="Line 7" y1="7.584" x2="7.584" stroke-width="1.5" stroke="#fff" stroke-linecap="round" stroke-linejoin="round" fill="none"/>
          </g>
        </g>
      </g>
      <path id="Path_1036" data-name="Path 1036" d="M255.861,272.825l5.6,5.6a2.645,2.645,0,1,0,3.74-3.741l-5.6-5.6" transform="translate(-233.659 -246.883)" fill="none" stroke="#fff" stroke-miterlimit="10" stroke-width="1.5"/>
    </g>
  </g>
</svg>
