<svg id="Experian_One" data-name="Experian One" xmlns="http://www.w3.org/2000/svg" width="318" height="318" viewBox="0 0 318 318">
  <defs>
    <style>
      .cls-1 {
        fill: #426da9;
      }

      .cls-2 {
        fill: #fff;
        font-size: 34px;
        font-family: Roboto-Light, Roboto;
        font-weight: 300;
        letter-spacing: -0.007em;
      }

      .cls-3, .cls-4, .cls-5 {
        fill: none;
        stroke: #fff;
        stroke-width: 1.5px;
      }

      .cls-3, .cls-4 {
        stroke-linecap: round;
      }

      .cls-3, .cls-5 {
        stroke-miterlimit: 10;
      }

      .cls-4 {
        stroke-linejoin: round;
      }
    </style>
  </defs>
  <path id="Rectangle_783" data-name="Rectangle 783" class="cls-1" d="M14,0H318a0,0,0,0,1,0,0V304a14,14,0,0,1-14,14H14A14,14,0,0,1,0,304V14A14,14,0,0,1,14,0Z"/>
  <text id="Experian_One-2" data-name="Experian One" class="cls-2" transform="translate(159 173)"><tspan x="-96.566" y="0">Experian One</tspan></text>
  <g id="Group_1331" data-name="Group 1331" transform="translate(273.456 7.151)">
    <g id="Group_1305" data-name="Group 1305" transform="translate(16.156 0) rotate(45)">
      <circle id="Ellipse_23" data-name="Ellipse 23" class="cls-3" cx="11.424" cy="11.424" r="11.424" transform="translate(0 0)"/>
      <g id="Group_970" data-name="Group 970" transform="translate(7.632 7.632)">
        <g id="Group_968" data-name="Group 968" transform="translate(0 0)">
          <line id="Line_6" data-name="Line 6" class="cls-4" x2="7.584" y2="7.584"/>
        </g>
        <g id="Group_969" data-name="Group 969" transform="translate(0 0)">
          <line id="Line_7" data-name="Line 7" class="cls-4" y1="7.584" x2="7.584"/>
        </g>
      </g>
    </g>
    <path id="Path_1036" data-name="Path 1036" class="cls-5" d="M255.861,272.825l5.6,5.6a2.645,2.645,0,1,0,3.74-3.741l-5.6-5.6" transform="translate(-233.659 -246.883)"/>
  </g>
</svg>
