<svg xmlns="http://www.w3.org/2000/svg" width="134.878" height="43.598" viewBox="0 0 134.878 43.598">
  <g id="Group_1298" data-name="Group 1298" transform="translate(-68 -2327)">
    <g id="Group_882" data-name="Group 882" transform="translate(68 2327)">
      <path id="Path_749" data-name="Path 749" d="M110.343,96.423H105.4a2.659,2.659,0,0,1-2.659-2.659V88.822a2.658,2.658,0,0,1,2.659-2.658h4.941A2.658,2.658,0,0,1,113,88.822v4.941a2.659,2.659,0,0,1-2.658,2.659" transform="translate(-89.012 -86.164)" fill="#fff"/>
      <path id="Path_750" data-name="Path 750" d="M80.939,119.354H75.381a2.989,2.989,0,0,1-2.991-2.99V110.8a2.992,2.992,0,0,1,2.991-2.991h5.558a2.992,2.992,0,0,1,2.991,2.991v5.56a2.989,2.989,0,0,1-2.991,2.99" transform="translate(-72.39 -98.02)" fill="#fff"/>
      <path id="Path_751" data-name="Path 751" d="M83.795,150.291H80.4a1.829,1.829,0,0,1-1.829-1.828V145.07a1.83,1.83,0,0,1,1.829-1.831h3.395a1.829,1.829,0,0,1,1.828,1.831v3.393a1.828,1.828,0,0,1-1.828,1.828" transform="translate(-75.775 -117.42)" fill="#fff"/>
      <path id="Path_752" data-name="Path 752" d="M102.794,172.452H98.78a2.159,2.159,0,0,1-2.16-2.16v-4.015a2.159,2.159,0,0,1,2.16-2.16h4.014a2.159,2.159,0,0,1,2.16,2.16v4.015a2.159,2.159,0,0,1-2.16,2.16" transform="translate(-85.659 -128.854)" fill="#fff"/>
      <path id="Path_753" data-name="Path 753" d="M137.611,106.324H134.83a1.5,1.5,0,0,1-1.5-1.495v-2.778a1.5,1.5,0,0,1,1.5-1.5h2.781a1.5,1.5,0,0,1,1.494,1.5v2.778a1.5,1.5,0,0,1-1.494,1.495" transform="translate(-105.765 -94.044)" fill="#fff"/>
      <path id="Path_754" data-name="Path 754" d="M275.382,113.533a1.6,1.6,0,1,0-1.606-1.6A1.6,1.6,0,0,0,275.382,113.533Z" transform="translate(-182.676 -99.397)" fill="#fff"/>
      <path id="Path_755" data-name="Path 755" d="M145.074,136.979a1.271,1.271,0,0,1-1.085.557,1.556,1.556,0,0,1-.743-.185,1.407,1.407,0,0,1-.589-1.146,1.118,1.118,0,0,1,.186-.62l3.718-5.855-3.718-5.855a1.225,1.225,0,0,1-.186-.651,1.274,1.274,0,0,1,.62-1.116,1.376,1.376,0,0,1,1.8.373l3.036,4.8,3.067-4.8a1.377,1.377,0,0,1,1.8-.373,1.274,1.274,0,0,1,.619,1.116,1.225,1.225,0,0,1-.185.651l-3.718,5.855,3.718,5.855a1.118,1.118,0,0,1,.185.62,1.405,1.405,0,0,1-.589,1.146,1.556,1.556,0,0,1-.744.185,1.271,1.271,0,0,1-1.084-.557l-3.067-4.771Z" transform="translate(-110.871 -105.746)" fill="#fff"/>
      <path id="Path_756" data-name="Path 756" d="M174.113,123.488a7.993,7.993,0,1,1,0,11.9v6.847a1.331,1.331,0,0,1-1.332,1.27,1.346,1.346,0,0,1-1.3-1.27V122.838a1.347,1.347,0,0,1,1.3-1.27,1.331,1.331,0,0,1,1.332,1.27Zm5.329.621a5.344,5.344,0,1,0,5.359,5.359A5.3,5.3,0,0,0,179.442,124.109Z" transform="translate(-126.655 -105.485)" fill="#fff"/>
      <path id="Path_757" data-name="Path 757" d="M253.773,128.012v8.024a1.347,1.347,0,0,1-1.3,1.27,1.331,1.331,0,0,1-1.333-1.27v-13.2a1.331,1.331,0,0,1,1.333-1.27,1.363,1.363,0,0,1,1.3,1.208,6.721,6.721,0,0,1,4-1.332,1.409,1.409,0,0,1,1.455,1.3,1.437,1.437,0,0,1-1.455,1.363C255.694,124.17,253.773,124.914,253.773,128.012Z" transform="translate(-170.279 -105.485)" fill="#fff"/>
      <path id="Path_758" data-name="Path 758" d="M275.756,121.717a1.33,1.33,0,0,0-1.331,1.27v13.2a1.33,1.33,0,0,0,1.331,1.27,1.346,1.346,0,0,0,1.3-1.27v-13.2A1.346,1.346,0,0,0,275.756,121.717Z" transform="translate(-183.032 -105.634)" fill="#fff"/>
      <path id="Path_759" data-name="Path 759" d="M298.393,122.838a1.33,1.33,0,0,1,1.332-1.27,1.347,1.347,0,0,1,1.3,1.27v13.2a1.347,1.347,0,0,1-1.3,1.27,1.33,1.33,0,0,1-1.332-1.27v-.651a7.993,7.993,0,1,1,0-11.9Zm-5.33,11.927a5.344,5.344,0,1,0-5.359-5.359A5.3,5.3,0,0,0,293.063,134.765Z" transform="translate(-188.844 -105.485)" fill="#fff"/>
      <path id="Path_760" data-name="Path 760" d="M336.869,128.166a4.222,4.222,0,0,0-4.121-4.12c-2.138,0-4.121.868-4.121,3.966v8.024a1.346,1.346,0,0,1-1.3,1.27,1.33,1.33,0,0,1-1.331-1.27v-13.2a1.33,1.33,0,0,1,1.331-1.27,1.363,1.363,0,0,1,1.3,1.208,6.837,6.837,0,0,1,10.874,5.019v8.241a1.345,1.345,0,0,1-1.3,1.27,1.331,1.331,0,0,1-1.332-1.27Z" transform="translate(-211.273 -105.485)" fill="#fff"/>
      <path id="Path_761" data-name="Path 761" d="M121.685,128.973a8,8,0,1,0-7.962,8.456,7.823,7.823,0,0,0,5.546-2.261,1.319,1.319,0,0,0-.868-2.324,1.572,1.572,0,0,0-1.053.527,4.881,4.881,0,0,1-3.625,1.394,5.308,5.308,0,0,1-5.3-4.365h11.959l.025,0h.037c.022,0,.044-.01.066-.014a.91.91,0,0,0,.136-.026A1.429,1.429,0,0,0,121.685,128.973Zm-7.962-4.9a5.294,5.294,0,0,1,5.08,3.69H108.612A5.306,5.306,0,0,1,113.723,124.077Z" transform="translate(-90.631 -105.485)" fill="#fff"/>
      <path id="Path_762" data-name="Path 762" d="M226.856,128.973a8,8,0,1,0-7.963,8.456,7.822,7.822,0,0,0,5.545-2.261,1.319,1.319,0,0,0-.867-2.324,1.572,1.572,0,0,0-1.054.527,4.881,4.881,0,0,1-3.624,1.394,5.308,5.308,0,0,1-5.3-4.365h11.939l.024,0h.057a1.046,1.046,0,0,0,.106-.021c.018,0,.037-.005.054-.011A1.424,1.424,0,0,0,226.856,128.973Zm-7.963-4.9a5.3,5.3,0,0,1,5.08,3.69H213.782A5.307,5.307,0,0,1,218.894,124.077Z" transform="translate(-148.226 -105.485)" fill="#fff"/>
      <g id="Group_881" data-name="Group 881" transform="translate(130.09 28.93)">
        <g id="Group_879" data-name="Group 879" transform="translate(0 0.014)">
          <path id="Path_763" data-name="Path 763" d="M360.9,153.034a.216.216,0,0,1-.218-.212v-2.236h-.5a.216.216,0,0,1-.211-.219.21.21,0,0,1,.211-.219h1.445a.211.211,0,0,1,.211.219.216.216,0,0,1-.211.219h-.507v2.236A.211.211,0,0,1,360.9,153.034Z" transform="translate(-359.969 -150.148)" fill="#fff"/>
        </g>
        <g id="Group_880" data-name="Group 880" transform="translate(2.238)">
          <path id="Path_764" data-name="Path 764" d="M366.193,153.02a.227.227,0,0,1-.216-.17l-.622-1.828V152.8a.211.211,0,0,1-.219.212.216.216,0,0,1-.219-.212v-2.359a.338.338,0,0,1,.329-.329.343.343,0,0,1,.316.243l.631,1.845.624-1.845a.345.345,0,0,1,.319-.242.338.338,0,0,1,.329.329V152.8a.211.211,0,0,1-.219.212.216.216,0,0,1-.219-.212v-1.778c-.1.285-.246.724-.366,1.08-.248.735-.249.737-.252.744A.237.237,0,0,1,366.193,153.02Z" transform="translate(-364.916 -150.116)" fill="#fff"/>
        </g>
      </g>
    </g>
  </g>
</svg>
